<svg width="40" height="34" viewBox="0 0 40 34" fill="currentColor" xmlns="http://www.w3.org/2000/svg">
<path d="M27.3333 21.1668C25.5972 21.1668 24.1215 20.5592 22.9063 19.3439C21.691 18.1286 21.0833 16.6529 21.0833 14.9168C21.0833 13.1807 21.691 11.705 22.9063 10.4897C24.1215 9.27447 25.5972 8.66683 27.3333 8.66683C29.0694 8.66683 30.5451 9.27447 31.7604 10.4897C32.9757 11.705 33.5833 13.1807 33.5833 14.9168C33.5833 16.6529 32.9757 18.1286 31.7604 19.3439C30.5451 20.5592 29.0694 21.1668 27.3333 21.1668ZM14.8333 33.6668V29.7085C14.8333 28.9793 15.0069 28.2849 15.3542 27.6252C15.7014 26.9654 16.1875 26.4446 16.8125 26.0627C18.375 25.1252 20.033 24.422 21.7865 23.9533C23.5399 23.4845 25.3889 23.2502 27.3333 23.2502C29.2778 23.2502 31.1267 23.4845 32.8802 23.9533C34.6337 24.422 36.2917 25.1252 37.8542 26.0627C38.4792 26.4446 38.9653 26.9654 39.3125 27.6252C39.6597 28.2849 39.8333 28.9793 39.8333 29.7085V33.6668H14.8333ZM19.3125 29.5002H35.3542C34.1389 28.8057 32.8542 28.2849 31.5 27.9377C30.1458 27.5904 28.7569 27.4168 27.3333 27.4168C25.9097 27.4168 24.5208 27.5904 23.1667 27.9377C21.8125 28.2849 20.5278 28.8057 19.3125 29.5002ZM27.3333 17.0002C27.9236 17.0002 28.4184 16.8005 28.8177 16.4012C29.217 16.0019 29.4167 15.5071 29.4167 14.9168C29.4167 14.3266 29.217 13.8318 28.8177 13.4325C28.4184 13.0331 27.9236 12.8335 27.3333 12.8335C26.7431 12.8335 26.2483 13.0331 25.849 13.4325C25.4497 13.8318 25.25 14.3266 25.25 14.9168C25.25 15.5071 25.4497 16.0019 25.849 16.4012C26.2483 16.8005 26.7431 17.0002 27.3333 17.0002ZM0.25 21.1668V17.0002H16.9167V21.1668H0.25ZM0.25 4.50016V0.333496H25.25V4.50016H0.25ZM17.125 12.8335H0.25V8.66683H19C18.5139 9.25711 18.1233 9.89947 17.8281 10.5939C17.533 11.2884 17.2986 12.0349 17.125 12.8335Z" fill="currentColor"/>
</svg>
