<svg width="39" height="40" viewBox="0 0 39 40" fill="none" xmlns="http://www.w3.org/2000/svg">
<path d="M19.5 20C25.6547 20 30.6429 15.5234 30.6429 10C30.6429 4.47656 25.6547 0 19.5 0C13.3453 0 8.35714 4.47656 8.35714 10C8.35714 15.5234 13.3453 20 19.5 20ZM9.05357 33.125C9.05357 34.1641 9.98504 35 11.1429 35C12.3007 35 13.2321 34.1641 13.2321 33.125C13.2321 32.0859 12.3007 31.25 11.1429 31.25C9.98504 31.25 9.05357 32.0859 9.05357 33.125ZM27.8571 22.5469V26.375C31.0346 26.9531 33.4286 29.4844 33.4286 32.5V35.7578C33.4286 36.3516 32.9585 36.8672 32.3056 36.9844L29.5025 37.4844C29.1281 37.5547 28.7625 37.3359 28.6842 36.9922L28.4143 35.7656C28.3359 35.4297 28.5797 35.0938 28.9627 35.0312L30.6429 34.7266V32.5C30.6429 27.5938 22.2857 27.4141 22.2857 32.6484V34.7344L23.9658 35.0391C24.3402 35.1094 24.5839 35.4375 24.5143 35.7734L24.2444 37C24.1661 37.3359 23.8004 37.5547 23.4261 37.4922L20.71 37.1641C20.0223 37.0781 19.5087 36.5547 19.5087 35.9219V32.5C19.5087 29.4844 21.9027 26.9609 25.0801 26.375V22.8438C24.8886 22.8984 24.6971 22.9297 24.5056 22.9922C22.9386 23.4844 21.2585 23.7578 19.5087 23.7578C17.7589 23.7578 16.0788 23.4844 14.5118 22.9922C13.8676 22.7891 13.2147 22.6641 12.5444 22.5859V28.9609C14.5554 29.5 16.0266 31.1562 16.0266 33.1328C16.0266 35.5469 13.8415 37.5078 11.1516 37.5078C8.46161 37.5078 6.27656 35.5469 6.27656 33.1328C6.27656 31.1562 7.74777 29.5 9.75871 28.9609V22.6797C4.2221 23.5156 0 27.7969 0 33V36.5C0 38.4297 1.74978 40 3.9 40H35.1C37.2502 40 39 38.4297 39 36.5V33C39 27.375 34.0554 22.8203 27.8571 22.5469Z" fill="#373D58"/>
</svg>
