<svg width="34" height="35" viewBox="0 0 34 35" fill="none" xmlns="http://www.w3.org/2000/svg">
<path d="M18.1253 0C24.2187 0 29.1599 4.49044 29.1599 10.0309C29.1579 11.4871 28.8106 12.9252 28.1425 14.2434C27.4743 15.5615 26.5017 16.7276 25.2935 17.659C25.8097 17.8923 26.2807 18.1268 26.7063 18.3625C27.6218 18.87 28.5725 19.4994 29.5585 20.2507C29.6913 20.3508 29.8012 20.4745 29.8816 20.6146C29.9621 20.7546 30.0115 20.9081 30.027 21.0661C30.0425 21.2241 30.0237 21.3834 29.9718 21.5346C29.9199 21.6858 29.8359 21.8258 29.7247 21.9464C29.4963 22.1922 29.1733 22.3455 28.8247 22.3736C28.476 22.4017 28.1293 22.3024 27.8585 22.0969C27.0614 21.4791 26.2153 20.9175 25.3275 20.417C24.4612 19.9523 23.5627 19.5413 22.6378 19.1867C21.2153 19.7668 19.6776 20.0649 18.1234 20.0617C16.4111 20.0651 14.7209 19.7028 13.1841 19.003L13.1048 19.038C9.37053 20.361 6.64493 22.3174 4.88831 24.9144C3.12224 27.5201 2.40071 30.4321 2.7237 33.6888C2.73815 33.8477 2.71847 34.0077 2.6658 34.1596C2.61312 34.3115 2.52849 34.4521 2.41679 34.5735C2.30509 34.6949 2.16854 34.7946 2.01503 34.8668C1.86152 34.939 1.69408 34.9823 1.5224 34.9942C1.1759 35.0255 0.830134 34.9284 0.560753 34.7241C0.291372 34.5197 0.120308 34.2249 0.0849871 33.904C-0.287115 30.1381 0.562864 26.7064 2.63115 23.6527C4.45199 20.9647 7.12659 18.8752 10.6209 17.386C9.50926 16.4574 8.62042 15.3229 8.01196 14.0559C7.40351 12.7889 7.08901 11.4176 7.08881 10.0309C7.08881 4.49044 12.0319 0 18.1253 0ZM31.7684 24.9196C32.0147 24.6955 32.3457 24.5695 32.6909 24.5686C33.0361 24.5676 33.368 24.6917 33.6157 24.9144C34.1257 25.3799 34.1257 26.1359 33.6195 26.6031L31.368 28.6663L33.6195 30.7313C33.7403 30.8415 33.8362 30.9729 33.9015 31.1179C33.9669 31.2629 34.0003 31.4184 34 31.5755C33.9996 31.7326 33.9655 31.8881 33.8995 32.0328C33.8335 32.1775 33.737 32.3085 33.6157 32.4183C33.3685 32.6414 33.0368 32.7662 32.6917 32.7659C32.3465 32.7655 32.0152 32.6402 31.7684 32.4165L29.5264 30.3568L27.2843 32.4165C27.0639 32.6163 26.775 32.7384 26.4677 32.7617C26.1604 32.7851 25.8539 32.7081 25.6013 32.5443L25.4389 32.4183C25.3176 32.3085 25.2211 32.1775 25.1551 32.0328C25.0891 31.8881 25.055 31.7326 25.0546 31.5755C25.0543 31.4184 25.0877 31.2629 25.1531 31.1179C25.2184 30.9729 25.3143 30.8415 25.4351 30.7313L27.6829 28.6663L25.4351 26.6014C25.3143 26.4912 25.2184 26.3597 25.1531 26.2148C25.0877 26.0698 25.0543 25.9142 25.0546 25.7571C25.055 25.6001 25.0891 25.4446 25.1551 25.2999C25.2211 25.1552 25.3176 25.0241 25.4389 24.9144C25.6863 24.692 26.0177 24.5679 26.3624 24.5685C26.7071 24.5692 27.0379 24.6945 27.2843 24.9179L29.5264 26.9759L31.7684 24.9196ZM18.1253 2.40622C13.492 2.40622 9.73886 5.81867 9.73886 10.0291C9.73886 14.2395 13.492 17.6537 18.1253 17.6537C22.7568 17.6537 26.5118 14.2413 26.5118 10.0291C26.5118 5.81692 22.7568 2.40622 18.1253 2.40622Z" fill="#001058"/>
</svg>
