<svg width="29" height="36" viewBox="0 0 29 36" fill="none" xmlns="http://www.w3.org/2000/svg">
<path d="M25.375 5.80643H25.1696V8.12901H25.375C25.6955 8.12901 26.0028 8.25136 26.2294 8.46915C26.456 8.68693 26.5833 8.98231 26.5833 9.2903V32.5161C26.5833 32.8241 26.456 33.1195 26.2294 33.3373C26.0028 33.555 25.6955 33.6774 25.375 33.6774H3.625C3.30453 33.6774 2.99719 33.555 2.77058 33.3373C2.54397 33.1195 2.41667 32.8241 2.41667 32.5161V9.2903C2.41667 8.98231 2.54397 8.68693 2.77058 8.46915C2.99719 8.25136 3.30453 8.12901 3.625 8.12901H3.83042V5.80643H3.625C2.66359 5.80643 1.74156 6.17348 1.06174 6.82683C0.381919 7.48019 0 8.36632 0 9.2903V32.5161C0 33.4401 0.381919 34.3262 1.06174 34.9796C1.74156 35.6329 2.66359 36 3.625 36H25.375C26.3364 36 27.2584 35.6329 27.9383 34.9796C28.6181 34.3262 29 33.4401 29 32.5161V9.2903C29 8.36632 28.6181 7.48019 27.9383 6.82683C27.2584 6.17348 26.3364 5.80643 25.375 5.80643Z" fill="#001058"/>
<path d="M22.9584 3.48387H19.3334V0H9.66675V3.48387H6.04175V10.4516H22.9584V3.48387ZM20.5417 8.12903H8.45841V5.80645H12.0834V2.32258H16.9167V5.80645H20.5417V8.12903Z" fill="#001058"/>
<path d="M7.25 15.0968H21.75V17.4194H7.25V15.0968ZM7.25 20.9032H21.75V23.2258H7.25V20.9032ZM7.25 26.7097H21.75V29.0323H7.25V26.7097Z" fill="#001058"/>
</svg>
