<svg width="19" height="17" viewBox="0 0 19 17" fill="none" xmlns="http://www.w3.org/2000/svg">
<path d="M9.00735 2.63836V0L4.50368 3.51782L9.00735 7.03563V4.39727C12.7341 4.39727 15.7629 6.763 15.7629 9.67399C15.7629 12.286 13.3196 14.4494 10.1333 14.8716V16.6481C14.5807 16.2171 18.0147 13.2622 18.0147 9.67399C18.0147 5.78681 13.9839 2.63836 9.00735 2.63836ZM2.25184 9.67399C2.25184 8.22289 3.00621 6.90371 4.23346 5.94511L2.63465 4.69628C1.79846 5.35016 1.13539 6.12631 0.683332 6.9804C0.231271 7.83449 -0.00092763 8.74979 2.78507e-06 9.67399C2.78507e-06 13.2622 3.43406 16.2171 7.88144 16.6481V14.8716C4.69509 14.4494 2.25184 12.286 2.25184 9.67399Z" fill="#001058"/>
</svg>
