<svg width="42" height="42" viewBox="0 0 42 42" fill="currentColor" xmlns="http://www.w3.org/2000/svg">
<path d="M35.5832 4.33329H33.4998V2.24996C33.4998 0.999959 32.6665 0.166626 31.4165 0.166626C30.1665 0.166626 29.3332 0.999959 29.3332 2.24996V4.33329H12.6665V2.24996C12.6665 0.999959 11.8332 0.166626 10.5832 0.166626C9.33317 0.166626 8.49984 0.999959 8.49984 2.24996V4.33329H6.4165C2.87484 4.33329 0.166504 7.04163 0.166504 10.5833V12.6666H41.8332V10.5833C41.8332 7.04163 39.1248 4.33329 35.5832 4.33329ZM0.166504 35.5833C0.166504 39.125 2.87484 41.8333 6.4165 41.8333H35.5832C39.1248 41.8333 41.8332 39.125 41.8332 35.5833V16.8333H0.166504V35.5833ZM31.4165 21C32.6665 21 33.4998 21.8333 33.4998 23.0833C33.4998 24.3333 32.6665 25.1666 31.4165 25.1666C30.1665 25.1666 29.3332 24.3333 29.3332 23.0833C29.3332 21.8333 30.1665 21 31.4165 21ZM31.4165 29.3333C32.6665 29.3333 33.4998 30.1666 33.4998 31.4166C33.4998 32.6666 32.6665 33.5 31.4165 33.5C30.1665 33.5 29.3332 32.6666 29.3332 31.4166C29.3332 30.1666 30.1665 29.3333 31.4165 29.3333ZM20.9998 21C22.2498 21 23.0832 21.8333 23.0832 23.0833C23.0832 24.3333 22.2498 25.1666 20.9998 25.1666C19.7498 25.1666 18.9165 24.3333 18.9165 23.0833C18.9165 21.8333 19.7498 21 20.9998 21ZM20.9998 29.3333C22.2498 29.3333 23.0832 30.1666 23.0832 31.4166C23.0832 32.6666 22.2498 33.5 20.9998 33.5C19.7498 33.5 18.9165 32.6666 18.9165 31.4166C18.9165 30.1666 19.7498 29.3333 20.9998 29.3333ZM10.5832 21C11.8332 21 12.6665 21.8333 12.6665 23.0833C12.6665 24.3333 11.8332 25.1666 10.5832 25.1666C9.33317 25.1666 8.49984 24.3333 8.49984 23.0833C8.49984 21.8333 9.33317 21 10.5832 21ZM10.5832 29.3333C11.8332 29.3333 12.6665 30.1666 12.6665 31.4166C12.6665 32.6666 11.8332 33.5 10.5832 33.5C9.33317 33.5 8.49984 32.6666 8.49984 31.4166C8.49984 30.1666 9.33317 29.3333 10.5832 29.3333Z" 
fill="#FFFFFF"/>
</svg>
