<svg width="50" height="50" viewBox="0 0 50 50" fill="#FFFFFF" xmlns="http://www.w3.org/2000/svg">
<mask id="mask0_413_12" style="mask-type:alpha" maskUnits="userSpaceOnUse" x="0" y="0" width="50" height="50">
<rect width="50" height="50" fill="#FFFFFF"/>
</mask>
<g mask="url(#mask0_413_12)">
<path d="M41.9792 27.0833H16.6667V22.9167H41.9792L38.75 19.6875L41.6667 16.6667L50 25L41.6667 33.3333L38.75 30.3125L41.9792 27.0833ZM31.25 18.75V10.4167H10.4167V39.5833H31.25V31.25H35.4167V39.5833C35.4167 40.7292 35.0087 41.7101 34.1927 42.526C33.3767 43.342 32.3958 43.75 31.25 43.75H10.4167C9.27083 43.75 8.28993 43.342 7.47396 42.526C6.65799 41.7101 6.25 40.7292 6.25 39.5833V10.4167C6.25 9.27083 6.65799 8.28993 7.47396 7.47396C8.28993 6.65799 9.27083 6.25 10.4167 6.25H31.25C32.3958 6.25 33.3767 6.65799 34.1927 7.47396C35.0087 8.28993 35.4167 9.27083 35.4167 10.4167V18.75H31.25Z" fill="#FFFFFF"/>
</g>
</svg>
