<svg width="50" height="50" viewBox="0 0 50 50" fill="#008CAB" xmlns="http://www.w3.org/2000/svg">
<path fill-rule="evenodd" clip-rule="evenodd" d="M25 7.8125C22.9993 7.81254 21.0605 8.5056 19.5131 9.7738C17.9657 11.042 16.9054 12.807 16.5125 14.7688L14.5781 24.4438C14.002 27.3325 12.5829 29.9859 10.5 32.0688L9.89377 32.6719C9.66946 32.895 9.50912 33.1743 9.42947 33.4805C9.34981 33.7867 9.35376 34.1087 9.44089 34.4129C9.52803 34.717 9.69516 34.9923 9.92487 35.2099C10.1546 35.4275 10.4385 35.5795 10.7469 35.65L13.3125 36.2438C21.0027 38.0221 28.9973 38.0221 36.6875 36.2438L39.25 35.65C39.5581 35.579 39.8416 35.4268 40.071 35.2093C40.3005 34.9918 40.4675 34.7169 40.5549 34.413C40.6422 34.1092 40.6467 33.7875 40.5678 33.4813C40.4889 33.1752 40.3296 32.8957 40.1063 32.6719L39.5 32.0688C37.4171 29.9859 35.998 27.3325 35.4219 24.4438L35.2094 23.3906C35.0871 22.781 35.2121 22.1479 35.5567 21.6304C35.9013 21.1129 36.4373 20.7535 37.0469 20.6313C37.6565 20.509 38.2897 20.6339 38.8071 20.9785C39.3246 21.3231 39.684 21.8592 39.8063 22.4688L40.0188 23.525C40.4125 25.5063 41.3875 27.325 42.8156 28.7531L43.4219 29.3594C44.2377 30.1744 44.8203 31.1929 45.1092 32.3093C45.3981 33.4256 45.3827 34.599 45.0647 35.7074C44.7467 36.8157 44.1377 37.8187 43.3009 38.6121C42.464 39.4055 41.43 39.9602 40.3063 40.2188L37.7406 40.8125C35.5469 41.3125 33.3386 41.6854 31.1156 41.9313C30.8185 43.3326 30.049 44.5893 28.936 45.491C27.823 46.3928 26.434 46.8848 25.0016 46.8848C23.5691 46.8848 22.1801 46.3928 21.0671 45.491C19.9541 44.5893 19.1847 43.3326 18.8875 41.9313C16.6588 41.6896 14.4465 41.315 12.2625 40.8094L9.69377 40.2156C8.57124 39.9559 7.53862 39.4006 6.70295 38.6074C5.86729 37.8142 5.25901 36.8119 4.94118 35.7044C4.62334 34.5969 4.60752 33.4245 4.89535 32.3089C5.18319 31.1932 5.76419 30.1749 6.57814 29.3594L7.18752 28.75C8.61564 27.3219 9.59064 25.5 9.98439 23.5219L11.9219 13.8469C12.2858 12.0289 13.0245 10.3068 14.091 8.79022C15.1574 7.27365 16.5282 5.99597 18.1159 5.03864C19.7036 4.08131 21.4734 3.46534 23.3124 3.23002C25.1514 2.9947 27.0193 3.14518 28.7969 3.67188C29.092 3.75949 29.3669 3.90437 29.6059 4.09823C29.845 4.29209 30.0436 4.53115 30.1903 4.80174C30.3369 5.07234 30.4289 5.36918 30.4609 5.67531C30.4928 5.98144 30.4642 6.29088 30.3766 6.58594C30.289 6.881 30.1441 7.15592 29.9502 7.39499C29.7564 7.63407 29.5173 7.83262 29.2467 7.97931C28.9761 8.12599 28.6793 8.21795 28.3731 8.24991C28.067 8.28188 27.7576 8.25324 27.4625 8.16563C26.6627 7.93124 25.8335 7.81233 25 7.8125Z" fill="#008CAB"/>
<path fill-rule="evenodd" clip-rule="evenodd" d="M39.0625 17.1875C40.7201 17.1875 42.3098 16.529 43.4819 15.3569C44.654 14.1848 45.3125 12.5951 45.3125 10.9375C45.3125 9.2799 44.654 7.69018 43.4819 6.51808C42.3098 5.34598 40.7201 4.6875 39.0625 4.6875C37.4049 4.6875 35.8152 5.34598 34.6431 6.51808C33.471 7.69018 32.8125 9.2799 32.8125 10.9375C32.8125 12.5951 33.471 14.1848 34.6431 15.3569C35.8152 16.529 37.4049 17.1875 39.0625 17.1875Z" fill="#008CAB"/>
</svg>
