<svg width="40" height="34" viewBox="0 0 40 34" fill="white" xmlns="http://www.w3.org/2000/svg">
<path d="M27.3333 21.1667C25.5972 21.1667 24.1215 20.5591 22.9063 19.3438C21.691 18.1285 21.0833 16.6528 21.0833 14.9167C21.0833 13.1806 21.691 11.7049 22.9063 10.4896C24.1215 9.27435 25.5972 8.66671 27.3333 8.66671C29.0694 8.66671 30.5451 9.27435 31.7604 10.4896C32.9757 11.7049 33.5833 13.1806 33.5833 14.9167C33.5833 16.6528 32.9757 18.1285 31.7604 19.3438C30.5451 20.5591 29.0694 21.1667 27.3333 21.1667ZM14.8333 33.6667V29.7084C14.8333 28.9792 15.0069 28.2848 15.3542 27.625C15.7014 26.9653 16.1875 26.4445 16.8125 26.0625C18.375 25.125 20.033 24.4219 21.7865 23.9532C23.5399 23.4844 25.3889 23.25 27.3333 23.25C29.2778 23.25 31.1267 23.4844 32.8802 23.9532C34.6337 24.4219 36.2917 25.125 37.8542 26.0625C38.4792 26.4445 38.9653 26.9653 39.3125 27.625C39.6597 28.2848 39.8333 28.9792 39.8333 29.7084V33.6667H14.8333ZM19.3125 29.5H35.3542C34.1389 28.8056 32.8542 28.2848 31.5 27.9375C30.1458 27.5903 28.7569 27.4167 27.3333 27.4167C25.9097 27.4167 24.5208 27.5903 23.1667 27.9375C21.8125 28.2848 20.5278 28.8056 19.3125 29.5ZM27.3333 17C27.9236 17 28.4184 16.8004 28.8177 16.4011C29.217 16.0018 29.4167 15.507 29.4167 14.9167C29.4167 14.3264 29.217 13.8316 28.8177 13.4323C28.4184 13.033 27.9236 12.8334 27.3333 12.8334C26.7431 12.8334 26.2483 13.033 25.849 13.4323C25.4497 13.8316 25.25 14.3264 25.25 14.9167C25.25 15.507 25.4497 16.0018 25.849 16.4011C26.2483 16.8004 26.7431 17 27.3333 17ZM0.25 21.1667V17H16.9167V21.1667H0.25ZM0.25 4.50004V0.333374H25.25V4.50004H0.25ZM17.125 12.8334H0.25V8.66671H19C18.5139 9.25699 18.1233 9.89935 17.8281 10.5938C17.533 11.2882 17.2986 12.0348 17.125 12.8334Z" 
fill=""/>
</svg>
