<svg width="48" height="51" viewBox="0 0 48 51" fill="none" xmlns="http://www.w3.org/2000/svg">
<path d="M24 28.05C21.05 28.05 18.5625 27.1894 16.5375 25.4681C14.5125 23.7469 13.5 21.6325 13.5 19.125C13.5 16.6175 14.5125 14.5031 16.5375 12.7819C18.5625 11.0606 21.05 10.2 24 10.2C26.95 10.2 29.4375 11.0606 31.4625 12.7819C33.4875 14.5031 34.5 16.6175 34.5 19.125C34.5 21.6325 33.4875 23.7469 31.4625 25.4681C29.4375 27.1894 26.95 28.05 24 28.05ZM24 22.95C25.3 22.95 26.375 22.5887 27.225 21.8662C28.075 21.1437 28.5 20.23 28.5 19.125C28.5 18.02 28.075 17.1063 27.225 16.3838C26.375 15.6613 25.3 15.3 24 15.3C22.7 15.3 21.625 15.6613 20.775 16.3838C19.925 17.1063 19.5 18.02 19.5 19.125C19.5 20.23 19.925 21.1437 20.775 21.8662C21.625 22.5887 22.7 22.95 24 22.95ZM24 51C17.05 49.5125 11.3125 46.1231 6.7875 40.8319C2.2625 35.5406 0 29.665 0 23.205V7.65L24 0L48 7.65V23.205C48 29.665 45.7375 35.5406 41.2125 40.8319C36.6875 46.1231 30.95 49.5125 24 51ZM24 5.41875L6 11.1562V23.205C6 25.5 6.375 27.7313 7.125 29.8988C7.875 32.0663 8.9 34.1062 10.2 36.0187C12.3 35.1262 14.5 34.425 16.8 33.915C19.1 33.405 21.5 33.15 24 33.15C26.5 33.15 28.9 33.405 31.2 33.915C33.5 34.425 35.7 35.1262 37.8 36.0187C39.1 34.1062 40.125 32.0663 40.875 29.8988C41.625 27.7313 42 25.5 42 23.205V11.1562L24 5.41875ZM24 38.25C22.2 38.25 20.45 38.42 18.75 38.76C17.05 39.1 15.425 39.5675 13.875 40.1625C15.325 41.4375 16.9 42.5425 18.6 43.4775C20.3 44.4125 22.1 45.135 24 45.645C25.9 45.135 27.7 44.4125 29.4 43.4775C31.1 42.5425 32.675 41.4375 34.125 40.1625C32.575 39.5675 30.95 39.1 29.25 38.76C27.55 38.42 25.8 38.25 24 38.25Z" fill="white"/>
</svg>
