<svg width="40" height="28" viewBox="0 0 40 28" fill="currentColor" xmlns="http://www.w3.org/2000/svg">
<path d="M27.2727 12C30.2909 12 32.7091 9.32 32.7091 6C32.7091 2.68 30.2909 0 27.2727 0C24.2545 0 21.8182 2.68 21.8182 6C21.8182 9.32 24.2545 12 27.2727 12ZM12.7273 12C15.7455 12 18.1636 9.32 18.1636 6C18.1636 2.68 15.7455 0 12.7273 0C9.70909 0 7.27273 2.68 7.27273 6C7.27273 9.32 9.70909 12 12.7273 12ZM12.7273 16C8.49091 16 0 18.34 0 23V28H25.4545V23C25.4545 18.34 16.9636 16 12.7273 16ZM27.2727 16C26.7455 16 26.1455 16.04 25.5091 16.1C27.6182 17.78 29.0909 20.04 29.0909 23V28H40V23C40 18.34 31.5091 16 27.2727 16Z" fill="white"/>
</svg>
